<?xml version="1.0" encoding="UTF-8"?>
<svg width="1200pt" height="1200pt" version="1.1" viewBox="0 0 1200 1200" xmlns="http://www.w3.org/2000/svg">
 <path d="m465.27 744.94s-365.33-260.88-357.55-471.27c0.035156-1.043 0.14453-2.0508 0.21484-3.0586-0.12109-3.1797-0.21484-6.3711-0.21484-9.5625 0-109.22 81.793-197.76 182.69-197.76 80.461 0 150.49 56.375 174.86 134.55 0.60156-1.8945-0.58984-1.8945 0 0 24.383-78.18 94.414-134.55 174.88-134.55 100.88 0 182.7 88.535 182.7 197.76 0 3.1914-0.10938 6.3828-0.22656 9.5625 0.070313 0.99609 0.17969 2.0039 0.22656 3.0586 7.7539 210.38-357.57 471.27-357.57 471.27z"/>
 <path transform="scale(12)" d="m70.313 13.348h18.889v79.402h-72.764v-44.547" fill="none" stroke="#000" stroke-miterlimit="10" stroke-width="5"/>
 <path d="m964.19 1012.6h-645.84v-63.742h645.84z"/>
 <path d="m972.7 838.4h-446.15v-63.73h446.15z"/>
 <path d="m976.93 655.71h-237.94v-63.742h237.94z"/>
</svg>
